<mxfile host="app.diagrams.net" modified="2024-05-02T20:26:08.981Z" agent="Mozilla/5.0 (Windows NT 10.0; Win64; x64) AppleWebKit/537.36 (KHTML, like Gecko) Chrome/124.0.0.0 Safari/537.36 Edg/124.0.0.0" etag="18VRCAo-cAnH1ztwP9vb" version="24.3.1" type="google">
  <diagram name="PÃ¡gina-1" id="44LaQIkWmfWSSSZqy9im">
    <mxGraphModel grid="1" page="1" gridSize="10" guides="1" tooltips="1" connect="1" arrows="1" fold="1" pageScale="1" pageWidth="827" pageHeight="1169" math="0" shadow="0">
      <root>
        <mxCell id="0" />
        <mxCell id="1" parent="0" />
        <mxCell id="bEgLZTEkBPJJxBVbNIPV-3" value="" style="edgeStyle=orthogonalEdgeStyle;rounded=0;orthogonalLoop=1;jettySize=auto;html=1;" edge="1" parent="1" source="bEgLZTEkBPJJxBVbNIPV-1" target="bEgLZTEkBPJJxBVbNIPV-2">
          <mxGeometry relative="1" as="geometry" />
        </mxCell>
        <mxCell id="bEgLZTEkBPJJxBVbNIPV-1" value="INICIO" style="ellipse;whiteSpace=wrap;html=1;" vertex="1" parent="1">
          <mxGeometry x="340" y="40" width="80" height="80" as="geometry" />
        </mxCell>
        <mxCell id="bEgLZTEkBPJJxBVbNIPV-5" value="" style="edgeStyle=orthogonalEdgeStyle;rounded=0;orthogonalLoop=1;jettySize=auto;html=1;" edge="1" parent="1" source="bEgLZTEkBPJJxBVbNIPV-2" target="bEgLZTEkBPJJxBVbNIPV-4">
          <mxGeometry relative="1" as="geometry" />
        </mxCell>
        <mxCell id="bEgLZTEkBPJJxBVbNIPV-2" value="Declarando n, a, b, x, y" style="whiteSpace=wrap;html=1;" vertex="1" parent="1">
          <mxGeometry x="315" y="150" width="130" height="50" as="geometry" />
        </mxCell>
        <mxCell id="bEgLZTEkBPJJxBVbNIPV-7" value="" style="edgeStyle=orthogonalEdgeStyle;rounded=0;orthogonalLoop=1;jettySize=auto;html=1;" edge="1" parent="1" source="bEgLZTEkBPJJxBVbNIPV-4" target="bEgLZTEkBPJJxBVbNIPV-6">
          <mxGeometry relative="1" as="geometry" />
        </mxCell>
        <mxCell id="bEgLZTEkBPJJxBVbNIPV-4" value="INPUT n, a, b, x, y" style="shape=parallelogram;perimeter=parallelogramPerimeter;whiteSpace=wrap;html=1;fixedSize=1;" vertex="1" parent="1">
          <mxGeometry x="310" y="220" width="140" height="60" as="geometry" />
        </mxCell>
        <mxCell id="bEgLZTEkBPJJxBVbNIPV-12" value="" style="edgeStyle=orthogonalEdgeStyle;rounded=0;orthogonalLoop=1;jettySize=auto;html=1;" edge="1" parent="1" source="bEgLZTEkBPJJxBVbNIPV-6">
          <mxGeometry relative="1" as="geometry">
            <mxPoint x="470" y="350" as="targetPoint" />
          </mxGeometry>
        </mxCell>
        <mxCell id="bEgLZTEkBPJJxBVbNIPV-14" value="" style="edgeStyle=orthogonalEdgeStyle;rounded=0;orthogonalLoop=1;jettySize=auto;html=1;" edge="1" parent="1" source="bEgLZTEkBPJJxBVbNIPV-6" target="bEgLZTEkBPJJxBVbNIPV-13">
          <mxGeometry relative="1" as="geometry" />
        </mxCell>
        <mxCell id="bEgLZTEkBPJJxBVbNIPV-6" value="n &amp;gt; b" style="rhombus;whiteSpace=wrap;html=1;" vertex="1" parent="1">
          <mxGeometry x="340" y="310" width="80" height="80" as="geometry" />
        </mxCell>
        <mxCell id="bEgLZTEkBPJJxBVbNIPV-8" value="SI" style="text;html=1;align=center;verticalAlign=middle;resizable=0;points=[];autosize=1;strokeColor=none;fillColor=none;" vertex="1" parent="1">
          <mxGeometry x="415" y="318" width="30" height="30" as="geometry" />
        </mxCell>
        <mxCell id="bEgLZTEkBPJJxBVbNIPV-27" value="" style="edgeStyle=orthogonalEdgeStyle;rounded=0;orthogonalLoop=1;jettySize=auto;html=1;" edge="1" parent="1" target="bEgLZTEkBPJJxBVbNIPV-26">
          <mxGeometry relative="1" as="geometry">
            <mxPoint x="570" y="350" as="sourcePoint" />
          </mxGeometry>
        </mxCell>
        <mxCell id="bEgLZTEkBPJJxBVbNIPV-17" value="" style="edgeStyle=orthogonalEdgeStyle;rounded=0;orthogonalLoop=1;jettySize=auto;html=1;" edge="1" parent="1" source="bEgLZTEkBPJJxBVbNIPV-13">
          <mxGeometry relative="1" as="geometry">
            <mxPoint x="480" y="460" as="targetPoint" />
          </mxGeometry>
        </mxCell>
        <mxCell id="bEgLZTEkBPJJxBVbNIPV-20" value="" style="edgeStyle=orthogonalEdgeStyle;rounded=0;orthogonalLoop=1;jettySize=auto;html=1;" edge="1" parent="1" source="bEgLZTEkBPJJxBVbNIPV-13">
          <mxGeometry relative="1" as="geometry">
            <mxPoint x="380" y="540" as="targetPoint" />
          </mxGeometry>
        </mxCell>
        <mxCell id="bEgLZTEkBPJJxBVbNIPV-13" value="n &amp;gt; a" style="rhombus;whiteSpace=wrap;html=1;" vertex="1" parent="1">
          <mxGeometry x="340" y="420" width="80" height="80" as="geometry" />
        </mxCell>
        <mxCell id="bEgLZTEkBPJJxBVbNIPV-15" value="NO" style="text;html=1;align=center;verticalAlign=middle;resizable=0;points=[];autosize=1;strokeColor=none;fillColor=none;" vertex="1" parent="1">
          <mxGeometry x="390" y="390" width="40" height="30" as="geometry" />
        </mxCell>
        <mxCell id="bEgLZTEkBPJJxBVbNIPV-25" value="" style="edgeStyle=orthogonalEdgeStyle;rounded=0;orthogonalLoop=1;jettySize=auto;html=1;" edge="1" parent="1" target="bEgLZTEkBPJJxBVbNIPV-24">
          <mxGeometry relative="1" as="geometry">
            <mxPoint x="580" y="460" as="sourcePoint" />
          </mxGeometry>
        </mxCell>
        <mxCell id="bEgLZTEkBPJJxBVbNIPV-18" value="SI" style="text;html=1;align=center;verticalAlign=middle;resizable=0;points=[];autosize=1;strokeColor=none;fillColor=none;" vertex="1" parent="1">
          <mxGeometry x="415" y="428" width="30" height="30" as="geometry" />
        </mxCell>
        <mxCell id="bEgLZTEkBPJJxBVbNIPV-23" value="" style="edgeStyle=orthogonalEdgeStyle;rounded=0;orthogonalLoop=1;jettySize=auto;html=1;" edge="1" parent="1" target="bEgLZTEkBPJJxBVbNIPV-22">
          <mxGeometry relative="1" as="geometry">
            <mxPoint x="380" y="600" as="sourcePoint" />
          </mxGeometry>
        </mxCell>
        <mxCell id="bEgLZTEkBPJJxBVbNIPV-21" value="NO" style="text;html=1;align=center;verticalAlign=middle;resizable=0;points=[];autosize=1;strokeColor=none;fillColor=none;" vertex="1" parent="1">
          <mxGeometry x="390" y="500" width="40" height="30" as="geometry" />
        </mxCell>
        <mxCell id="bEgLZTEkBPJJxBVbNIPV-22" value="FIN" style="ellipse;whiteSpace=wrap;html=1;" vertex="1" parent="1">
          <mxGeometry x="347.5" y="630" width="65" height="60" as="geometry" />
        </mxCell>
        <mxCell id="bEgLZTEkBPJJxBVbNIPV-24" value="FIN" style="ellipse;whiteSpace=wrap;html=1;" vertex="1" parent="1">
          <mxGeometry x="680" y="425" width="70" height="70" as="geometry" />
        </mxCell>
        <mxCell id="bEgLZTEkBPJJxBVbNIPV-26" value="FIN" style="ellipse;whiteSpace=wrap;html=1;" vertex="1" parent="1">
          <mxGeometry x="660" y="310" width="80" height="80" as="geometry" />
        </mxCell>
        <mxCell id="VBEiT9nE0xX55PgwLziB-1" value="OUTPUT (n*(100-y)) / 100" style="shape=parallelogram;perimeter=parallelogramPerimeter;whiteSpace=wrap;html=1;fixedSize=1;" vertex="1" parent="1">
          <mxGeometry x="460" y="320" width="180" height="60" as="geometry" />
        </mxCell>
        <mxCell id="VBEiT9nE0xX55PgwLziB-2" value="OUTPUT (n* (100-x)) / 100" style="shape=parallelogram;perimeter=parallelogramPerimeter;whiteSpace=wrap;html=1;fixedSize=1;" vertex="1" parent="1">
          <mxGeometry x="470" y="430" width="190" height="60" as="geometry" />
        </mxCell>
        <mxCell id="VBEiT9nE0xX55PgwLziB-3" value="OUTPUT n" style="shape=parallelogram;perimeter=parallelogramPerimeter;whiteSpace=wrap;html=1;fixedSize=1;" vertex="1" parent="1">
          <mxGeometry x="320" y="540" width="120" height="60" as="geometry" />
        </mxCell>
      </root>
    </mxGraphModel>
  </diagram>
</mxfile>
